<mxfile host="65bd71144e">
    <diagram id="uzjNfql-GwXzOBc71eJe" name="Page-1">
        <mxGraphModel dx="591" dy="435" grid="1" gridSize="10" guides="1" tooltips="1" connect="1" arrows="1" fold="1" page="1" pageScale="1" pageWidth="1169" pageHeight="827" math="0" shadow="0">
            <root>
                <mxCell id="0"/>
                <mxCell id="1" parent="0"/>
                <mxCell id="2" value="&lt;font size=&quot;1&quot; color=&quot;#000000&quot;&gt;&lt;b style=&quot;font-size: 26px ; background-color: rgb(148 , 201 , 255)&quot;&gt;Logo&lt;/b&gt;&lt;/font&gt;" style="rounded=1;whiteSpace=wrap;html=1;fillColor=#f5f5f5;strokeColor=#666666;gradientColor=#b3b3b3;labelBorderColor=none;fontStyle=2" parent="1" vertex="1">
                    <mxGeometry x="70" y="60" width="120" height="70" as="geometry"/>
                </mxCell>
                <mxCell id="11" value="" style="rounded=1;whiteSpace=wrap;html=1;fontSize=20;fillColor=#fad7ac;strokeColor=#b46504;" parent="1" vertex="1">
                    <mxGeometry x="70" y="310" width="100" height="100" as="geometry"/>
                </mxCell>
                <mxCell id="13" value="" style="rounded=1;whiteSpace=wrap;html=1;fontSize=20;fillColor=#fad7ac;strokeColor=#b46504;" parent="1" vertex="1">
                    <mxGeometry x="260" y="310" width="100" height="100" as="geometry"/>
                </mxCell>
                <mxCell id="27" value="" style="rounded=1;whiteSpace=wrap;html=1;fontSize=20;fillColor=#fad7ac;strokeColor=#b46504;" parent="1" vertex="1">
                    <mxGeometry x="450" y="310" width="100" height="100" as="geometry"/>
                </mxCell>
                <mxCell id="28" value="" style="rounded=1;whiteSpace=wrap;html=1;fontSize=20;fillColor=#fad7ac;strokeColor=#b46504;" parent="1" vertex="1">
                    <mxGeometry x="630" y="310" width="100" height="100" as="geometry"/>
                </mxCell>
                <mxCell id="29" value="" style="rounded=1;whiteSpace=wrap;html=1;fontSize=20;fillColor=#fad7ac;strokeColor=#b46504;" parent="1" vertex="1">
                    <mxGeometry x="810" y="310" width="100" height="100" as="geometry"/>
                </mxCell>
                <mxCell id="30" value="" style="rounded=1;whiteSpace=wrap;html=1;fontSize=20;fillColor=#fad7ac;strokeColor=#b46504;" parent="1" vertex="1">
                    <mxGeometry x="980" y="310" width="100" height="100" as="geometry"/>
                </mxCell>
                <mxCell id="37" value="" style="rounded=1;whiteSpace=wrap;html=1;fontSize=20;fillColor=#fad7ac;strokeColor=#b46504;" parent="1" vertex="1">
                    <mxGeometry x="70" y="500" width="100" height="100" as="geometry"/>
                </mxCell>
                <mxCell id="38" value="" style="rounded=1;whiteSpace=wrap;html=1;fontSize=20;fillColor=#fad7ac;strokeColor=#b46504;" parent="1" vertex="1">
                    <mxGeometry x="260" y="500" width="100" height="100" as="geometry"/>
                </mxCell>
                <mxCell id="39" value="" style="rounded=1;whiteSpace=wrap;html=1;fontSize=20;fillColor=#fad7ac;strokeColor=#b46504;" parent="1" vertex="1">
                    <mxGeometry x="450" y="500" width="100" height="100" as="geometry"/>
                </mxCell>
                <mxCell id="40" value="" style="rounded=1;whiteSpace=wrap;html=1;fontSize=20;fillColor=#fad7ac;strokeColor=#b46504;" parent="1" vertex="1">
                    <mxGeometry x="630" y="500" width="100" height="100" as="geometry"/>
                </mxCell>
                <mxCell id="41" value="" style="rounded=1;whiteSpace=wrap;html=1;fontSize=20;fillColor=#fad7ac;strokeColor=#b46504;" parent="1" vertex="1">
                    <mxGeometry x="810" y="500" width="100" height="100" as="geometry"/>
                </mxCell>
                <mxCell id="42" value="" style="rounded=1;whiteSpace=wrap;html=1;fontSize=20;fillColor=#fad7ac;strokeColor=#b46504;" parent="1" vertex="1">
                    <mxGeometry x="980" y="500" width="100" height="100" as="geometry"/>
                </mxCell>
                <mxCell id="44" value="&lt;span style=&quot;background-color: rgb(156 , 156 , 156)&quot;&gt;Danh Sách Nhân Viên&lt;/span&gt;" style="rounded=1;whiteSpace=wrap;html=1;shadow=0;dashed=0;fontFamily=Helvetica;fontSize=20;strokeWidth=1;fillColor=#dae8fc;gradientColor=#7ea6e0;strokeColor=#6c8ebf;" parent="1" vertex="1">
                    <mxGeometry x="70" y="190" width="410" height="60" as="geometry"/>
                </mxCell>
                <mxCell id="YctXRsYOhMGOnZACJkXa-45" value="" style="rounded=0;whiteSpace=wrap;html=1;shadow=0;dashed=0;labelBackgroundColor=#9C9C9C;fontFamily=Helvetica;fontSize=21;strokeColor=#56517e;strokeWidth=1;fillColor=#d0cee2;" parent="1" vertex="1">
                    <mxGeometry x="70" y="640" width="1010" height="150" as="geometry"/>
                </mxCell>
                <mxCell id="YctXRsYOhMGOnZACJkXa-46" value="" style="verticalLabelPosition=bottom;shadow=0;dashed=0;align=center;html=1;verticalAlign=top;strokeWidth=1;shape=mxgraph.mockup.misc.mail2;strokeColor=#999999;labelBackgroundColor=#9C9C9C;fontFamily=Helvetica;fontSize=21;fontColor=default;fillColor=default;" parent="1" vertex="1">
                    <mxGeometry x="910" y="700" width="70" height="35" as="geometry"/>
                </mxCell>
                <mxCell id="YctXRsYOhMGOnZACJkXa-48" value="" style="verticalLabelPosition=bottom;shadow=0;dashed=0;align=center;html=1;verticalAlign=top;strokeWidth=1;shape=mxgraph.mockup.misc.mail2;strokeColor=#999999;labelBackgroundColor=#9C9C9C;fontFamily=Helvetica;fontSize=21;fontColor=default;fillColor=default;" parent="1" vertex="1">
                    <mxGeometry x="655" y="700" width="70" height="35" as="geometry"/>
                </mxCell>
                <mxCell id="YctXRsYOhMGOnZACJkXa-49" value="" style="verticalLabelPosition=bottom;shadow=0;dashed=0;align=center;html=1;verticalAlign=top;strokeWidth=1;shape=mxgraph.mockup.misc.mail2;strokeColor=#999999;labelBackgroundColor=#9C9C9C;fontFamily=Helvetica;fontSize=21;fontColor=default;fillColor=default;" parent="1" vertex="1">
                    <mxGeometry x="740" y="700" width="70" height="35" as="geometry"/>
                </mxCell>
                <mxCell id="YctXRsYOhMGOnZACJkXa-50" value="" style="verticalLabelPosition=bottom;shadow=0;dashed=0;align=center;html=1;verticalAlign=top;strokeWidth=1;shape=mxgraph.mockup.misc.mail2;strokeColor=#999999;labelBackgroundColor=#9C9C9C;fontFamily=Helvetica;fontSize=21;fontColor=default;fillColor=default;" parent="1" vertex="1">
                    <mxGeometry x="825" y="700" width="70" height="35" as="geometry"/>
                </mxCell>
                <mxCell id="YctXRsYOhMGOnZACJkXa-52" value="" style="rounded=0;whiteSpace=wrap;html=1;shadow=0;dashed=0;labelBackgroundColor=#9C9C9C;fontFamily=Helvetica;fontSize=21;fontColor=default;strokeColor=#999999;strokeWidth=1;fillColor=default;" parent="1" vertex="1">
                    <mxGeometry x="180" y="660" width="150" height="10" as="geometry"/>
                </mxCell>
                <mxCell id="YctXRsYOhMGOnZACJkXa-53" value="" style="rounded=0;whiteSpace=wrap;html=1;shadow=0;dashed=0;labelBackgroundColor=#9C9C9C;fontFamily=Helvetica;fontSize=21;fontColor=default;strokeColor=#999999;strokeWidth=1;fillColor=default;" parent="1" vertex="1">
                    <mxGeometry x="180" y="700" width="180" height="10" as="geometry"/>
                </mxCell>
                <mxCell id="YctXRsYOhMGOnZACJkXa-54" value="" style="rounded=0;whiteSpace=wrap;html=1;shadow=0;dashed=0;labelBackgroundColor=#9C9C9C;fontFamily=Helvetica;fontSize=21;fontColor=default;strokeColor=#999999;strokeWidth=1;fillColor=default;" parent="1" vertex="1">
                    <mxGeometry x="180" y="680" width="160" height="10" as="geometry"/>
                </mxCell>
                <mxCell id="YctXRsYOhMGOnZACJkXa-55" value="" style="rounded=0;whiteSpace=wrap;html=1;shadow=0;dashed=0;labelBackgroundColor=#9C9C9C;fontFamily=Helvetica;fontSize=21;fontColor=default;strokeColor=#999999;strokeWidth=1;fillColor=default;" parent="1" vertex="1">
                    <mxGeometry x="180" y="722.5" width="160" height="10" as="geometry"/>
                </mxCell>
                <mxCell id="YctXRsYOhMGOnZACJkXa-56" value="" style="rounded=0;whiteSpace=wrap;html=1;shadow=0;dashed=0;labelBackgroundColor=#9C9C9C;fontFamily=Helvetica;fontSize=21;fontColor=default;strokeColor=#999999;strokeWidth=1;fillColor=default;" parent="1" vertex="1">
                    <mxGeometry x="180" y="745" width="170" height="10" as="geometry"/>
                </mxCell>
                <mxCell id="YctXRsYOhMGOnZACJkXa-57" value="" style="rounded=0;whiteSpace=wrap;html=1;shadow=0;dashed=0;labelBackgroundColor=#9C9C9C;fontFamily=Helvetica;fontSize=21;fontColor=default;strokeColor=#999999;strokeWidth=1;fillColor=default;" parent="1" vertex="1">
                    <mxGeometry x="180" y="770" width="150" height="10" as="geometry"/>
                </mxCell>
                <mxCell id="YctXRsYOhMGOnZACJkXa-58" value="" style="rounded=0;whiteSpace=wrap;html=1;shadow=0;dashed=0;labelBackgroundColor=#9C9C9C;fontFamily=Helvetica;fontSize=21;strokeColor=#56517e;strokeWidth=1;fillColor=#d0cee2;" parent="1" vertex="1">
                    <mxGeometry x="75" y="610" width="90" height="10" as="geometry"/>
                </mxCell>
                <mxCell id="YctXRsYOhMGOnZACJkXa-59" value="" style="rounded=0;whiteSpace=wrap;html=1;shadow=0;dashed=0;labelBackgroundColor=#9C9C9C;fontFamily=Helvetica;fontSize=21;strokeColor=#56517e;strokeWidth=1;fillColor=#d0cee2;" parent="1" vertex="1">
                    <mxGeometry x="265" y="610" width="90" height="10" as="geometry"/>
                </mxCell>
                <mxCell id="YctXRsYOhMGOnZACJkXa-60" value="" style="rounded=0;whiteSpace=wrap;html=1;shadow=0;dashed=0;labelBackgroundColor=#9C9C9C;fontFamily=Helvetica;fontSize=21;strokeColor=#56517e;strokeWidth=1;fillColor=#d0cee2;" parent="1" vertex="1">
                    <mxGeometry x="75" y="420" width="90" height="10" as="geometry"/>
                </mxCell>
                <mxCell id="YctXRsYOhMGOnZACJkXa-61" value="" style="rounded=0;whiteSpace=wrap;html=1;shadow=0;dashed=0;labelBackgroundColor=#9C9C9C;fontFamily=Helvetica;fontSize=21;strokeColor=#56517e;strokeWidth=1;fillColor=#d0cee2;" parent="1" vertex="1">
                    <mxGeometry x="265" y="420" width="90" height="10" as="geometry"/>
                </mxCell>
                <mxCell id="YctXRsYOhMGOnZACJkXa-62" value="" style="rounded=0;whiteSpace=wrap;html=1;shadow=0;dashed=0;labelBackgroundColor=#9C9C9C;fontFamily=Helvetica;fontSize=21;strokeColor=#56517e;strokeWidth=1;fillColor=#d0cee2;" parent="1" vertex="1">
                    <mxGeometry x="455" y="420" width="90" height="10" as="geometry"/>
                </mxCell>
                <mxCell id="YctXRsYOhMGOnZACJkXa-63" value="" style="rounded=0;whiteSpace=wrap;html=1;shadow=0;dashed=0;labelBackgroundColor=#9C9C9C;fontFamily=Helvetica;fontSize=21;strokeColor=#56517e;strokeWidth=1;fillColor=#d0cee2;" parent="1" vertex="1">
                    <mxGeometry x="635" y="420" width="90" height="10" as="geometry"/>
                </mxCell>
                <mxCell id="YctXRsYOhMGOnZACJkXa-64" value="" style="rounded=0;whiteSpace=wrap;html=1;shadow=0;dashed=0;labelBackgroundColor=#9C9C9C;fontFamily=Helvetica;fontSize=21;strokeColor=#56517e;strokeWidth=1;fillColor=#d0cee2;" parent="1" vertex="1">
                    <mxGeometry x="815" y="420" width="90" height="10" as="geometry"/>
                </mxCell>
                <mxCell id="YctXRsYOhMGOnZACJkXa-65" value="" style="rounded=0;whiteSpace=wrap;html=1;shadow=0;dashed=0;labelBackgroundColor=#9C9C9C;fontFamily=Helvetica;fontSize=21;strokeColor=#56517e;strokeWidth=1;fillColor=#d0cee2;" parent="1" vertex="1">
                    <mxGeometry x="985" y="420" width="90" height="10" as="geometry"/>
                </mxCell>
                <mxCell id="YctXRsYOhMGOnZACJkXa-66" value="" style="rounded=0;whiteSpace=wrap;html=1;shadow=0;dashed=0;labelBackgroundColor=#9C9C9C;fontFamily=Helvetica;fontSize=21;strokeColor=#56517e;strokeWidth=1;fillColor=#d0cee2;" parent="1" vertex="1">
                    <mxGeometry x="985" y="610" width="90" height="10" as="geometry"/>
                </mxCell>
                <mxCell id="YctXRsYOhMGOnZACJkXa-67" value="" style="rounded=0;whiteSpace=wrap;html=1;shadow=0;dashed=0;labelBackgroundColor=#9C9C9C;fontFamily=Helvetica;fontSize=21;strokeColor=#56517e;strokeWidth=1;fillColor=#d0cee2;" parent="1" vertex="1">
                    <mxGeometry x="815" y="610" width="90" height="10" as="geometry"/>
                </mxCell>
                <mxCell id="YctXRsYOhMGOnZACJkXa-68" value="" style="rounded=0;whiteSpace=wrap;html=1;shadow=0;dashed=0;labelBackgroundColor=#9C9C9C;fontFamily=Helvetica;fontSize=21;strokeColor=#56517e;strokeWidth=1;fillColor=#d0cee2;" parent="1" vertex="1">
                    <mxGeometry x="635" y="610" width="90" height="10" as="geometry"/>
                </mxCell>
                <mxCell id="YctXRsYOhMGOnZACJkXa-69" value="" style="rounded=0;whiteSpace=wrap;html=1;shadow=0;dashed=0;labelBackgroundColor=#9C9C9C;fontFamily=Helvetica;fontSize=21;strokeColor=#56517e;strokeWidth=1;fillColor=#d0cee2;" parent="1" vertex="1">
                    <mxGeometry x="455" y="610" width="90" height="10" as="geometry"/>
                </mxCell>
                <mxCell id="55hkyc6ABiOMje85q2xj-66" value="&lt;font color=&quot;#000000&quot;&gt;Phòng Ban&lt;/font&gt;" style="rounded=1;whiteSpace=wrap;html=1;shadow=0;dashed=0;labelBackgroundColor=default;fontFamily=Helvetica;fontSize=17;fontColor=#FFFFFF;strokeColor=#999999;strokeWidth=1;fillColor=default;" parent="1" vertex="1">
                    <mxGeometry x="340" y="75" width="120" height="40" as="geometry"/>
                </mxCell>
                <mxCell id="55hkyc6ABiOMje85q2xj-68" value="&lt;font color=&quot;#000000&quot;&gt;Nhân Viên&lt;/font&gt;" style="rounded=1;whiteSpace=wrap;html=1;shadow=0;dashed=0;labelBackgroundColor=default;fontFamily=Helvetica;fontSize=17;fontColor=#FFFFFF;strokeColor=#999999;strokeWidth=1;fillColor=default;" parent="1" vertex="1">
                    <mxGeometry x="215" y="75" width="120" height="40" as="geometry"/>
                </mxCell>
                <mxCell id="RWTbc2gFHN5MN8pq3DPj-44" value="&lt;font color=&quot;#000000&quot;&gt;Bảng Lương&lt;/font&gt;" style="rounded=1;whiteSpace=wrap;html=1;shadow=0;dashed=0;labelBackgroundColor=default;fontFamily=Helvetica;fontSize=17;fontColor=#FFFFFF;strokeColor=#999999;strokeWidth=1;fillColor=default;" vertex="1" parent="1">
                    <mxGeometry x="464.5" y="75" width="120" height="40" as="geometry"/>
                </mxCell>
            </root>
        </mxGraphModel>
    </diagram>
    <diagram id="7DyuuR22PSKQbYnHcFt3" name="Page-2">
        <mxGraphModel dx="591" dy="435" grid="1" gridSize="10" guides="1" tooltips="1" connect="1" arrows="1" fold="1" page="1" pageScale="1" pageWidth="1169" pageHeight="827" math="0" shadow="0">
            <root>
                <mxCell id="kQE0qKxybdZ9bn2HLYTg-0"/>
                <mxCell id="kQE0qKxybdZ9bn2HLYTg-1" parent="kQE0qKxybdZ9bn2HLYTg-0"/>
                <mxCell id="_H-edMSdf96tXutQfCl2-0" value="&lt;font size=&quot;1&quot; color=&quot;#000000&quot;&gt;&lt;b style=&quot;font-size: 26px ; background-color: rgb(148 , 201 , 255)&quot;&gt;Logo&lt;/b&gt;&lt;/font&gt;" style="rounded=1;whiteSpace=wrap;html=1;fillColor=#f5f5f5;strokeColor=#666666;gradientColor=#b3b3b3;labelBorderColor=none;fontStyle=2" parent="kQE0qKxybdZ9bn2HLYTg-1" vertex="1">
                    <mxGeometry x="80" y="70" width="120" height="70" as="geometry"/>
                </mxCell>
                <mxCell id="_H-edMSdf96tXutQfCl2-1" value="&lt;span style=&quot;background-color: rgb(156 , 156 , 156)&quot;&gt;Nhân Viên / Phòng Ban&lt;/span&gt;" style="rounded=1;whiteSpace=wrap;html=1;shadow=0;dashed=0;fontFamily=Helvetica;fontSize=20;strokeWidth=1;fillColor=#dae8fc;gradientColor=#7ea6e0;strokeColor=#6c8ebf;" parent="kQE0qKxybdZ9bn2HLYTg-1" vertex="1">
                    <mxGeometry x="80" y="200" width="410" height="60" as="geometry"/>
                </mxCell>
                <mxCell id="_H-edMSdf96tXutQfCl2-2" value="" style="rounded=0;whiteSpace=wrap;html=1;shadow=0;dashed=0;labelBackgroundColor=#9C9C9C;fontFamily=Helvetica;fontSize=21;strokeColor=#56517e;strokeWidth=1;fillColor=#d0cee2;" parent="kQE0qKxybdZ9bn2HLYTg-1" vertex="1">
                    <mxGeometry x="80" y="650" width="1010" height="150" as="geometry"/>
                </mxCell>
                <mxCell id="_H-edMSdf96tXutQfCl2-3" value="" style="verticalLabelPosition=bottom;shadow=0;dashed=0;align=center;html=1;verticalAlign=top;strokeWidth=1;shape=mxgraph.mockup.misc.mail2;strokeColor=#999999;labelBackgroundColor=#9C9C9C;fontFamily=Helvetica;fontSize=21;fontColor=default;fillColor=default;" parent="kQE0qKxybdZ9bn2HLYTg-1" vertex="1">
                    <mxGeometry x="920" y="710" width="70" height="35" as="geometry"/>
                </mxCell>
                <mxCell id="_H-edMSdf96tXutQfCl2-4" value="" style="verticalLabelPosition=bottom;shadow=0;dashed=0;align=center;html=1;verticalAlign=top;strokeWidth=1;shape=mxgraph.mockup.misc.mail2;strokeColor=#999999;labelBackgroundColor=#9C9C9C;fontFamily=Helvetica;fontSize=21;fontColor=default;fillColor=default;" parent="kQE0qKxybdZ9bn2HLYTg-1" vertex="1">
                    <mxGeometry x="665" y="710" width="70" height="35" as="geometry"/>
                </mxCell>
                <mxCell id="_H-edMSdf96tXutQfCl2-5" value="" style="verticalLabelPosition=bottom;shadow=0;dashed=0;align=center;html=1;verticalAlign=top;strokeWidth=1;shape=mxgraph.mockup.misc.mail2;strokeColor=#999999;labelBackgroundColor=#9C9C9C;fontFamily=Helvetica;fontSize=21;fontColor=default;fillColor=default;" parent="kQE0qKxybdZ9bn2HLYTg-1" vertex="1">
                    <mxGeometry x="750" y="710" width="70" height="35" as="geometry"/>
                </mxCell>
                <mxCell id="_H-edMSdf96tXutQfCl2-6" value="" style="verticalLabelPosition=bottom;shadow=0;dashed=0;align=center;html=1;verticalAlign=top;strokeWidth=1;shape=mxgraph.mockup.misc.mail2;strokeColor=#999999;labelBackgroundColor=#9C9C9C;fontFamily=Helvetica;fontSize=21;fontColor=default;fillColor=default;" parent="kQE0qKxybdZ9bn2HLYTg-1" vertex="1">
                    <mxGeometry x="835" y="710" width="70" height="35" as="geometry"/>
                </mxCell>
                <mxCell id="_H-edMSdf96tXutQfCl2-7" value="" style="rounded=0;whiteSpace=wrap;html=1;shadow=0;dashed=0;labelBackgroundColor=#9C9C9C;fontFamily=Helvetica;fontSize=21;fontColor=default;strokeColor=#999999;strokeWidth=1;fillColor=default;" parent="kQE0qKxybdZ9bn2HLYTg-1" vertex="1">
                    <mxGeometry x="190" y="670" width="150" height="10" as="geometry"/>
                </mxCell>
                <mxCell id="_H-edMSdf96tXutQfCl2-8" value="" style="rounded=0;whiteSpace=wrap;html=1;shadow=0;dashed=0;labelBackgroundColor=#9C9C9C;fontFamily=Helvetica;fontSize=21;fontColor=default;strokeColor=#999999;strokeWidth=1;fillColor=default;" parent="kQE0qKxybdZ9bn2HLYTg-1" vertex="1">
                    <mxGeometry x="190" y="710" width="180" height="10" as="geometry"/>
                </mxCell>
                <mxCell id="_H-edMSdf96tXutQfCl2-9" value="" style="rounded=0;whiteSpace=wrap;html=1;shadow=0;dashed=0;labelBackgroundColor=#9C9C9C;fontFamily=Helvetica;fontSize=21;fontColor=default;strokeColor=#999999;strokeWidth=1;fillColor=default;" parent="kQE0qKxybdZ9bn2HLYTg-1" vertex="1">
                    <mxGeometry x="190" y="690" width="160" height="10" as="geometry"/>
                </mxCell>
                <mxCell id="_H-edMSdf96tXutQfCl2-10" value="" style="rounded=0;whiteSpace=wrap;html=1;shadow=0;dashed=0;labelBackgroundColor=#9C9C9C;fontFamily=Helvetica;fontSize=21;fontColor=default;strokeColor=#999999;strokeWidth=1;fillColor=default;" parent="kQE0qKxybdZ9bn2HLYTg-1" vertex="1">
                    <mxGeometry x="190" y="732.5" width="160" height="10" as="geometry"/>
                </mxCell>
                <mxCell id="_H-edMSdf96tXutQfCl2-11" value="" style="rounded=0;whiteSpace=wrap;html=1;shadow=0;dashed=0;labelBackgroundColor=#9C9C9C;fontFamily=Helvetica;fontSize=21;fontColor=default;strokeColor=#999999;strokeWidth=1;fillColor=default;" parent="kQE0qKxybdZ9bn2HLYTg-1" vertex="1">
                    <mxGeometry x="190" y="755" width="170" height="10" as="geometry"/>
                </mxCell>
                <mxCell id="_H-edMSdf96tXutQfCl2-12" value="" style="rounded=0;whiteSpace=wrap;html=1;shadow=0;dashed=0;labelBackgroundColor=#9C9C9C;fontFamily=Helvetica;fontSize=21;fontColor=default;strokeColor=#999999;strokeWidth=1;fillColor=default;" parent="kQE0qKxybdZ9bn2HLYTg-1" vertex="1">
                    <mxGeometry x="190" y="780" width="150" height="10" as="geometry"/>
                </mxCell>
                <mxCell id="_H-edMSdf96tXutQfCl2-13" value="&lt;font color=&quot;#000000&quot;&gt;Phòng Ban&lt;/font&gt;" style="rounded=1;whiteSpace=wrap;html=1;shadow=0;dashed=0;labelBackgroundColor=default;fontFamily=Helvetica;fontSize=17;fontColor=#FFFFFF;strokeColor=#999999;strokeWidth=1;fillColor=default;" parent="kQE0qKxybdZ9bn2HLYTg-1" vertex="1">
                    <mxGeometry x="350" y="85" width="120" height="40" as="geometry"/>
                </mxCell>
                <mxCell id="_H-edMSdf96tXutQfCl2-15" value="&lt;font color=&quot;#000000&quot;&gt;Nhân Viên&lt;/font&gt;" style="rounded=1;whiteSpace=wrap;html=1;shadow=0;dashed=0;labelBackgroundColor=default;fontFamily=Helvetica;fontSize=17;fontColor=#FFFFFF;strokeColor=#999999;strokeWidth=1;fillColor=default;" parent="kQE0qKxybdZ9bn2HLYTg-1" vertex="1">
                    <mxGeometry x="225" y="85" width="120" height="40" as="geometry"/>
                </mxCell>
                <mxCell id="_H-edMSdf96tXutQfCl2-16" value="" style="rounded=0;whiteSpace=wrap;html=1;shadow=0;dashed=0;labelBackgroundColor=#9C9C9C;fontFamily=Helvetica;fontSize=21;strokeColor=#56517e;strokeWidth=1;fillColor=#d0cee2;" parent="kQE0qKxybdZ9bn2HLYTg-1" vertex="1">
                    <mxGeometry x="80" y="290" width="290" height="150" as="geometry"/>
                </mxCell>
                <mxCell id="_H-edMSdf96tXutQfCl2-17" value="" style="rounded=0;whiteSpace=wrap;html=1;shadow=0;dashed=0;labelBackgroundColor=#9C9C9C;fontFamily=Helvetica;fontSize=21;fontColor=default;strokeColor=#999999;strokeWidth=1;fillColor=default;" parent="kQE0qKxybdZ9bn2HLYTg-1" vertex="1">
                    <mxGeometry x="100" y="310" width="210" height="10" as="geometry"/>
                </mxCell>
                <mxCell id="_H-edMSdf96tXutQfCl2-18" value="" style="rounded=0;whiteSpace=wrap;html=1;shadow=0;dashed=0;labelBackgroundColor=#9C9C9C;fontFamily=Helvetica;fontSize=21;fontColor=default;strokeColor=#999999;strokeWidth=1;fillColor=default;" parent="kQE0qKxybdZ9bn2HLYTg-1" vertex="1">
                    <mxGeometry x="100" y="370" width="230" height="10" as="geometry"/>
                </mxCell>
                <mxCell id="_H-edMSdf96tXutQfCl2-19" value="" style="rounded=0;whiteSpace=wrap;html=1;shadow=0;dashed=0;labelBackgroundColor=#9C9C9C;fontFamily=Helvetica;fontSize=21;fontColor=default;strokeColor=#999999;strokeWidth=1;fillColor=default;" parent="kQE0qKxybdZ9bn2HLYTg-1" vertex="1">
                    <mxGeometry x="100" y="340" width="190" height="10" as="geometry"/>
                </mxCell>
                <mxCell id="_H-edMSdf96tXutQfCl2-20" value="" style="rounded=0;whiteSpace=wrap;html=1;shadow=0;dashed=0;labelBackgroundColor=#9C9C9C;fontFamily=Helvetica;fontSize=21;fontColor=default;strokeColor=#999999;strokeWidth=1;fillColor=default;" parent="kQE0qKxybdZ9bn2HLYTg-1" vertex="1">
                    <mxGeometry x="100" y="400" width="190" height="10" as="geometry"/>
                </mxCell>
                <mxCell id="_H-edMSdf96tXutQfCl2-21" value="" style="rounded=0;whiteSpace=wrap;html=1;shadow=0;dashed=0;labelBackgroundColor=#9C9C9C;fontFamily=Helvetica;fontSize=21;strokeColor=#56517e;strokeWidth=1;fillColor=#d0cee2;" parent="kQE0qKxybdZ9bn2HLYTg-1" vertex="1">
                    <mxGeometry x="80" y="470" width="290" height="150" as="geometry"/>
                </mxCell>
                <mxCell id="_H-edMSdf96tXutQfCl2-22" value="" style="rounded=0;whiteSpace=wrap;html=1;shadow=0;dashed=0;labelBackgroundColor=#9C9C9C;fontFamily=Helvetica;fontSize=21;fontColor=default;strokeColor=#999999;strokeWidth=1;fillColor=default;" parent="kQE0qKxybdZ9bn2HLYTg-1" vertex="1">
                    <mxGeometry x="100" y="490" width="210" height="10" as="geometry"/>
                </mxCell>
                <mxCell id="_H-edMSdf96tXutQfCl2-23" value="" style="rounded=0;whiteSpace=wrap;html=1;shadow=0;dashed=0;labelBackgroundColor=#9C9C9C;fontFamily=Helvetica;fontSize=21;fontColor=default;strokeColor=#999999;strokeWidth=1;fillColor=default;" parent="kQE0qKxybdZ9bn2HLYTg-1" vertex="1">
                    <mxGeometry x="100" y="550" width="230" height="10" as="geometry"/>
                </mxCell>
                <mxCell id="_H-edMSdf96tXutQfCl2-24" value="" style="rounded=0;whiteSpace=wrap;html=1;shadow=0;dashed=0;labelBackgroundColor=#9C9C9C;fontFamily=Helvetica;fontSize=21;fontColor=default;strokeColor=#999999;strokeWidth=1;fillColor=default;" parent="kQE0qKxybdZ9bn2HLYTg-1" vertex="1">
                    <mxGeometry x="100" y="520" width="190" height="10" as="geometry"/>
                </mxCell>
                <mxCell id="_H-edMSdf96tXutQfCl2-25" value="" style="rounded=0;whiteSpace=wrap;html=1;shadow=0;dashed=0;labelBackgroundColor=#9C9C9C;fontFamily=Helvetica;fontSize=21;fontColor=default;strokeColor=#999999;strokeWidth=1;fillColor=default;" parent="kQE0qKxybdZ9bn2HLYTg-1" vertex="1">
                    <mxGeometry x="100" y="580" width="190" height="10" as="geometry"/>
                </mxCell>
                <mxCell id="_H-edMSdf96tXutQfCl2-26" value="" style="rounded=0;whiteSpace=wrap;html=1;shadow=0;dashed=0;labelBackgroundColor=#9C9C9C;fontFamily=Helvetica;fontSize=21;strokeColor=#56517e;strokeWidth=1;fillColor=#d0cee2;" parent="kQE0qKxybdZ9bn2HLYTg-1" vertex="1">
                    <mxGeometry x="440" y="290" width="290" height="150" as="geometry"/>
                </mxCell>
                <mxCell id="_H-edMSdf96tXutQfCl2-27" value="" style="rounded=0;whiteSpace=wrap;html=1;shadow=0;dashed=0;labelBackgroundColor=#9C9C9C;fontFamily=Helvetica;fontSize=21;fontColor=default;strokeColor=#999999;strokeWidth=1;fillColor=default;" parent="kQE0qKxybdZ9bn2HLYTg-1" vertex="1">
                    <mxGeometry x="460" y="310" width="210" height="10" as="geometry"/>
                </mxCell>
                <mxCell id="_H-edMSdf96tXutQfCl2-28" value="" style="rounded=0;whiteSpace=wrap;html=1;shadow=0;dashed=0;labelBackgroundColor=#9C9C9C;fontFamily=Helvetica;fontSize=21;fontColor=default;strokeColor=#999999;strokeWidth=1;fillColor=default;" parent="kQE0qKxybdZ9bn2HLYTg-1" vertex="1">
                    <mxGeometry x="460" y="370" width="230" height="10" as="geometry"/>
                </mxCell>
                <mxCell id="_H-edMSdf96tXutQfCl2-29" value="" style="rounded=0;whiteSpace=wrap;html=1;shadow=0;dashed=0;labelBackgroundColor=#9C9C9C;fontFamily=Helvetica;fontSize=21;fontColor=default;strokeColor=#999999;strokeWidth=1;fillColor=default;" parent="kQE0qKxybdZ9bn2HLYTg-1" vertex="1">
                    <mxGeometry x="460" y="340" width="190" height="10" as="geometry"/>
                </mxCell>
                <mxCell id="_H-edMSdf96tXutQfCl2-30" value="" style="rounded=0;whiteSpace=wrap;html=1;shadow=0;dashed=0;labelBackgroundColor=#9C9C9C;fontFamily=Helvetica;fontSize=21;fontColor=default;strokeColor=#999999;strokeWidth=1;fillColor=default;" parent="kQE0qKxybdZ9bn2HLYTg-1" vertex="1">
                    <mxGeometry x="460" y="400" width="190" height="10" as="geometry"/>
                </mxCell>
                <mxCell id="_H-edMSdf96tXutQfCl2-31" value="" style="rounded=0;whiteSpace=wrap;html=1;shadow=0;dashed=0;labelBackgroundColor=#9C9C9C;fontFamily=Helvetica;fontSize=21;strokeColor=#56517e;strokeWidth=1;fillColor=#d0cee2;" parent="kQE0qKxybdZ9bn2HLYTg-1" vertex="1">
                    <mxGeometry x="440" y="470" width="290" height="150" as="geometry"/>
                </mxCell>
                <mxCell id="_H-edMSdf96tXutQfCl2-32" value="" style="rounded=0;whiteSpace=wrap;html=1;shadow=0;dashed=0;labelBackgroundColor=#9C9C9C;fontFamily=Helvetica;fontSize=21;fontColor=default;strokeColor=#999999;strokeWidth=1;fillColor=default;" parent="kQE0qKxybdZ9bn2HLYTg-1" vertex="1">
                    <mxGeometry x="460" y="490" width="210" height="10" as="geometry"/>
                </mxCell>
                <mxCell id="_H-edMSdf96tXutQfCl2-33" value="" style="rounded=0;whiteSpace=wrap;html=1;shadow=0;dashed=0;labelBackgroundColor=#9C9C9C;fontFamily=Helvetica;fontSize=21;fontColor=default;strokeColor=#999999;strokeWidth=1;fillColor=default;" parent="kQE0qKxybdZ9bn2HLYTg-1" vertex="1">
                    <mxGeometry x="460" y="550" width="230" height="10" as="geometry"/>
                </mxCell>
                <mxCell id="_H-edMSdf96tXutQfCl2-34" value="" style="rounded=0;whiteSpace=wrap;html=1;shadow=0;dashed=0;labelBackgroundColor=#9C9C9C;fontFamily=Helvetica;fontSize=21;fontColor=default;strokeColor=#999999;strokeWidth=1;fillColor=default;" parent="kQE0qKxybdZ9bn2HLYTg-1" vertex="1">
                    <mxGeometry x="460" y="520" width="190" height="10" as="geometry"/>
                </mxCell>
                <mxCell id="_H-edMSdf96tXutQfCl2-35" value="" style="rounded=0;whiteSpace=wrap;html=1;shadow=0;dashed=0;labelBackgroundColor=#9C9C9C;fontFamily=Helvetica;fontSize=21;fontColor=default;strokeColor=#999999;strokeWidth=1;fillColor=default;" parent="kQE0qKxybdZ9bn2HLYTg-1" vertex="1">
                    <mxGeometry x="460" y="580" width="190" height="10" as="geometry"/>
                </mxCell>
                <mxCell id="_H-edMSdf96tXutQfCl2-36" value="" style="rounded=0;whiteSpace=wrap;html=1;shadow=0;dashed=0;labelBackgroundColor=#9C9C9C;fontFamily=Helvetica;fontSize=21;strokeColor=#56517e;strokeWidth=1;fillColor=#d0cee2;" parent="kQE0qKxybdZ9bn2HLYTg-1" vertex="1">
                    <mxGeometry x="800" y="290" width="290" height="150" as="geometry"/>
                </mxCell>
                <mxCell id="_H-edMSdf96tXutQfCl2-37" value="" style="rounded=0;whiteSpace=wrap;html=1;shadow=0;dashed=0;labelBackgroundColor=#9C9C9C;fontFamily=Helvetica;fontSize=21;fontColor=default;strokeColor=#999999;strokeWidth=1;fillColor=default;" parent="kQE0qKxybdZ9bn2HLYTg-1" vertex="1">
                    <mxGeometry x="820" y="310" width="210" height="10" as="geometry"/>
                </mxCell>
                <mxCell id="_H-edMSdf96tXutQfCl2-38" value="" style="rounded=0;whiteSpace=wrap;html=1;shadow=0;dashed=0;labelBackgroundColor=#9C9C9C;fontFamily=Helvetica;fontSize=21;fontColor=default;strokeColor=#999999;strokeWidth=1;fillColor=default;" parent="kQE0qKxybdZ9bn2HLYTg-1" vertex="1">
                    <mxGeometry x="820" y="370" width="230" height="10" as="geometry"/>
                </mxCell>
                <mxCell id="_H-edMSdf96tXutQfCl2-39" value="" style="rounded=0;whiteSpace=wrap;html=1;shadow=0;dashed=0;labelBackgroundColor=#9C9C9C;fontFamily=Helvetica;fontSize=21;fontColor=default;strokeColor=#999999;strokeWidth=1;fillColor=default;" parent="kQE0qKxybdZ9bn2HLYTg-1" vertex="1">
                    <mxGeometry x="820" y="340" width="190" height="10" as="geometry"/>
                </mxCell>
                <mxCell id="_H-edMSdf96tXutQfCl2-40" value="" style="rounded=0;whiteSpace=wrap;html=1;shadow=0;dashed=0;labelBackgroundColor=#9C9C9C;fontFamily=Helvetica;fontSize=21;fontColor=default;strokeColor=#999999;strokeWidth=1;fillColor=default;" parent="kQE0qKxybdZ9bn2HLYTg-1" vertex="1">
                    <mxGeometry x="820" y="400" width="190" height="10" as="geometry"/>
                </mxCell>
                <mxCell id="DEzQkKLh8TB5zXmf_u3O-0" value="&lt;font color=&quot;#000000&quot;&gt;Bảng Lương&lt;/font&gt;" style="rounded=1;whiteSpace=wrap;html=1;shadow=0;dashed=0;labelBackgroundColor=default;fontFamily=Helvetica;fontSize=17;fontColor=#FFFFFF;strokeColor=#999999;strokeWidth=1;fillColor=default;" vertex="1" parent="kQE0qKxybdZ9bn2HLYTg-1">
                    <mxGeometry x="480" y="85" width="120" height="40" as="geometry"/>
                </mxCell>
            </root>
        </mxGraphModel>
    </diagram>
    <diagram id="CNx9tps3C1CH8sxgNtH9" name="Page-3">
        <mxGraphModel dx="650" dy="478" grid="1" gridSize="10" guides="1" tooltips="1" connect="1" arrows="1" fold="1" page="1" pageScale="1" pageWidth="1169" pageHeight="827" math="0" shadow="0">
            <root>
                <mxCell id="loOYE2-ifUIUfoz4fjdQ-0"/>
                <mxCell id="loOYE2-ifUIUfoz4fjdQ-1" parent="loOYE2-ifUIUfoz4fjdQ-0"/>
                <mxCell id="z_3HrlCsbAV8srhDw47w-0" value="&lt;font size=&quot;1&quot; color=&quot;#000000&quot;&gt;&lt;b style=&quot;font-size: 26px ; background-color: rgb(148 , 201 , 255)&quot;&gt;Logo&lt;/b&gt;&lt;/font&gt;" style="rounded=1;whiteSpace=wrap;html=1;fillColor=#f5f5f5;strokeColor=#666666;gradientColor=#b3b3b3;labelBorderColor=none;fontStyle=2" parent="loOYE2-ifUIUfoz4fjdQ-1" vertex="1">
                    <mxGeometry x="80" y="70" width="120" height="70" as="geometry"/>
                </mxCell>
                <mxCell id="z_3HrlCsbAV8srhDw47w-13" value="&lt;span style=&quot;background-color: rgb(156 , 156 , 156)&quot;&gt;Nhân Viên / Bảng Lương&lt;/span&gt;" style="rounded=1;whiteSpace=wrap;html=1;shadow=0;dashed=0;fontFamily=Helvetica;fontSize=20;strokeWidth=1;fillColor=#dae8fc;gradientColor=#7ea6e0;strokeColor=#6c8ebf;" parent="loOYE2-ifUIUfoz4fjdQ-1" vertex="1">
                    <mxGeometry x="80" y="200" width="410" height="60" as="geometry"/>
                </mxCell>
                <mxCell id="z_3HrlCsbAV8srhDw47w-14" value="" style="rounded=0;whiteSpace=wrap;html=1;shadow=0;dashed=0;labelBackgroundColor=#9C9C9C;fontFamily=Helvetica;fontSize=21;strokeColor=#56517e;strokeWidth=1;fillColor=#d0cee2;" parent="loOYE2-ifUIUfoz4fjdQ-1" vertex="1">
                    <mxGeometry x="80" y="650" width="1010" height="150" as="geometry"/>
                </mxCell>
                <mxCell id="z_3HrlCsbAV8srhDw47w-15" value="" style="verticalLabelPosition=bottom;shadow=0;dashed=0;align=center;html=1;verticalAlign=top;strokeWidth=1;shape=mxgraph.mockup.misc.mail2;strokeColor=#999999;labelBackgroundColor=#9C9C9C;fontFamily=Helvetica;fontSize=21;fontColor=default;fillColor=default;" parent="loOYE2-ifUIUfoz4fjdQ-1" vertex="1">
                    <mxGeometry x="920" y="710" width="70" height="35" as="geometry"/>
                </mxCell>
                <mxCell id="z_3HrlCsbAV8srhDw47w-16" value="" style="verticalLabelPosition=bottom;shadow=0;dashed=0;align=center;html=1;verticalAlign=top;strokeWidth=1;shape=mxgraph.mockup.misc.mail2;strokeColor=#999999;labelBackgroundColor=#9C9C9C;fontFamily=Helvetica;fontSize=21;fontColor=default;fillColor=default;" parent="loOYE2-ifUIUfoz4fjdQ-1" vertex="1">
                    <mxGeometry x="665" y="710" width="70" height="35" as="geometry"/>
                </mxCell>
                <mxCell id="z_3HrlCsbAV8srhDw47w-17" value="" style="verticalLabelPosition=bottom;shadow=0;dashed=0;align=center;html=1;verticalAlign=top;strokeWidth=1;shape=mxgraph.mockup.misc.mail2;strokeColor=#999999;labelBackgroundColor=#9C9C9C;fontFamily=Helvetica;fontSize=21;fontColor=default;fillColor=default;" parent="loOYE2-ifUIUfoz4fjdQ-1" vertex="1">
                    <mxGeometry x="750" y="710" width="70" height="35" as="geometry"/>
                </mxCell>
                <mxCell id="z_3HrlCsbAV8srhDw47w-18" value="" style="verticalLabelPosition=bottom;shadow=0;dashed=0;align=center;html=1;verticalAlign=top;strokeWidth=1;shape=mxgraph.mockup.misc.mail2;strokeColor=#999999;labelBackgroundColor=#9C9C9C;fontFamily=Helvetica;fontSize=21;fontColor=default;fillColor=default;" parent="loOYE2-ifUIUfoz4fjdQ-1" vertex="1">
                    <mxGeometry x="835" y="710" width="70" height="35" as="geometry"/>
                </mxCell>
                <mxCell id="z_3HrlCsbAV8srhDw47w-19" value="" style="rounded=0;whiteSpace=wrap;html=1;shadow=0;dashed=0;labelBackgroundColor=#9C9C9C;fontFamily=Helvetica;fontSize=21;fontColor=default;strokeColor=#999999;strokeWidth=1;fillColor=default;" parent="loOYE2-ifUIUfoz4fjdQ-1" vertex="1">
                    <mxGeometry x="190" y="670" width="150" height="10" as="geometry"/>
                </mxCell>
                <mxCell id="z_3HrlCsbAV8srhDw47w-20" value="" style="rounded=0;whiteSpace=wrap;html=1;shadow=0;dashed=0;labelBackgroundColor=#9C9C9C;fontFamily=Helvetica;fontSize=21;fontColor=default;strokeColor=#999999;strokeWidth=1;fillColor=default;" parent="loOYE2-ifUIUfoz4fjdQ-1" vertex="1">
                    <mxGeometry x="190" y="710" width="180" height="10" as="geometry"/>
                </mxCell>
                <mxCell id="z_3HrlCsbAV8srhDw47w-21" value="" style="rounded=0;whiteSpace=wrap;html=1;shadow=0;dashed=0;labelBackgroundColor=#9C9C9C;fontFamily=Helvetica;fontSize=21;fontColor=default;strokeColor=#999999;strokeWidth=1;fillColor=default;" parent="loOYE2-ifUIUfoz4fjdQ-1" vertex="1">
                    <mxGeometry x="190" y="690" width="160" height="10" as="geometry"/>
                </mxCell>
                <mxCell id="z_3HrlCsbAV8srhDw47w-22" value="" style="rounded=0;whiteSpace=wrap;html=1;shadow=0;dashed=0;labelBackgroundColor=#9C9C9C;fontFamily=Helvetica;fontSize=21;fontColor=default;strokeColor=#999999;strokeWidth=1;fillColor=default;" parent="loOYE2-ifUIUfoz4fjdQ-1" vertex="1">
                    <mxGeometry x="190" y="732.5" width="160" height="10" as="geometry"/>
                </mxCell>
                <mxCell id="z_3HrlCsbAV8srhDw47w-23" value="" style="rounded=0;whiteSpace=wrap;html=1;shadow=0;dashed=0;labelBackgroundColor=#9C9C9C;fontFamily=Helvetica;fontSize=21;fontColor=default;strokeColor=#999999;strokeWidth=1;fillColor=default;" parent="loOYE2-ifUIUfoz4fjdQ-1" vertex="1">
                    <mxGeometry x="190" y="755" width="170" height="10" as="geometry"/>
                </mxCell>
                <mxCell id="z_3HrlCsbAV8srhDw47w-24" value="" style="rounded=0;whiteSpace=wrap;html=1;shadow=0;dashed=0;labelBackgroundColor=#9C9C9C;fontFamily=Helvetica;fontSize=21;fontColor=default;strokeColor=#999999;strokeWidth=1;fillColor=default;" parent="loOYE2-ifUIUfoz4fjdQ-1" vertex="1">
                    <mxGeometry x="190" y="780" width="150" height="10" as="geometry"/>
                </mxCell>
                <mxCell id="z_3HrlCsbAV8srhDw47w-37" value="&lt;font color=&quot;#000000&quot;&gt;Phòng Ban&lt;/font&gt;" style="rounded=1;whiteSpace=wrap;html=1;shadow=0;dashed=0;labelBackgroundColor=default;fontFamily=Helvetica;fontSize=17;fontColor=#FFFFFF;strokeColor=#999999;strokeWidth=1;fillColor=default;" parent="loOYE2-ifUIUfoz4fjdQ-1" vertex="1">
                    <mxGeometry x="350" y="85" width="120" height="40" as="geometry"/>
                </mxCell>
                <mxCell id="z_3HrlCsbAV8srhDw47w-39" value="&lt;font color=&quot;#000000&quot;&gt;Nhân Viên&lt;/font&gt;" style="rounded=1;whiteSpace=wrap;html=1;shadow=0;dashed=0;labelBackgroundColor=default;fontFamily=Helvetica;fontSize=17;fontColor=#FFFFFF;strokeColor=#999999;strokeWidth=1;fillColor=default;" parent="loOYE2-ifUIUfoz4fjdQ-1" vertex="1">
                    <mxGeometry x="225" y="85" width="120" height="40" as="geometry"/>
                </mxCell>
                <mxCell id="3_BdxvBpeRyjxSDpdT94-0" value="" style="rounded=0;whiteSpace=wrap;html=1;shadow=0;dashed=0;labelBackgroundColor=#9C9C9C;fontFamily=Helvetica;fontSize=21;strokeColor=#56517e;strokeWidth=1;fillColor=#d0cee2;" parent="loOYE2-ifUIUfoz4fjdQ-1" vertex="1">
                    <mxGeometry x="80" y="290" width="290" height="150" as="geometry"/>
                </mxCell>
                <mxCell id="3_BdxvBpeRyjxSDpdT94-1" value="" style="rounded=0;whiteSpace=wrap;html=1;shadow=0;dashed=0;labelBackgroundColor=#9C9C9C;fontFamily=Helvetica;fontSize=21;fontColor=default;strokeColor=#999999;strokeWidth=1;fillColor=default;" parent="loOYE2-ifUIUfoz4fjdQ-1" vertex="1">
                    <mxGeometry x="100" y="300" width="210" height="10" as="geometry"/>
                </mxCell>
                <mxCell id="3_BdxvBpeRyjxSDpdT94-2" value="" style="rounded=0;whiteSpace=wrap;html=1;shadow=0;dashed=0;labelBackgroundColor=#9C9C9C;fontFamily=Helvetica;fontSize=21;fontColor=default;strokeColor=#999999;strokeWidth=1;fillColor=default;" parent="loOYE2-ifUIUfoz4fjdQ-1" vertex="1">
                    <mxGeometry x="100" y="360" width="230" height="10" as="geometry"/>
                </mxCell>
                <mxCell id="3_BdxvBpeRyjxSDpdT94-3" value="" style="rounded=0;whiteSpace=wrap;html=1;shadow=0;dashed=0;labelBackgroundColor=#9C9C9C;fontFamily=Helvetica;fontSize=21;fontColor=default;strokeColor=#999999;strokeWidth=1;fillColor=default;" parent="loOYE2-ifUIUfoz4fjdQ-1" vertex="1">
                    <mxGeometry x="100" y="330" width="190" height="10" as="geometry"/>
                </mxCell>
                <mxCell id="3_BdxvBpeRyjxSDpdT94-4" value="" style="rounded=0;whiteSpace=wrap;html=1;shadow=0;dashed=0;labelBackgroundColor=#9C9C9C;fontFamily=Helvetica;fontSize=21;fontColor=default;strokeColor=#999999;strokeWidth=1;fillColor=default;" parent="loOYE2-ifUIUfoz4fjdQ-1" vertex="1">
                    <mxGeometry x="100" y="420" width="190" height="10" as="geometry"/>
                </mxCell>
                <mxCell id="M-EKQYhNzF8E_MqglAwv-0" value="" style="rounded=0;whiteSpace=wrap;html=1;shadow=0;dashed=0;labelBackgroundColor=#9C9C9C;fontFamily=Helvetica;fontSize=21;fontColor=default;strokeColor=#999999;strokeWidth=1;fillColor=default;" parent="loOYE2-ifUIUfoz4fjdQ-1" vertex="1">
                    <mxGeometry x="100" y="390" width="210" height="10" as="geometry"/>
                </mxCell>
                <mxCell id="iBiI_8RoemAOS1CKku0k-0" value="" style="rounded=0;whiteSpace=wrap;html=1;shadow=0;dashed=0;labelBackgroundColor=#9C9C9C;fontFamily=Helvetica;fontSize=21;strokeColor=#56517e;strokeWidth=1;fillColor=#d0cee2;" parent="loOYE2-ifUIUfoz4fjdQ-1" vertex="1">
                    <mxGeometry x="80" y="470" width="290" height="150" as="geometry"/>
                </mxCell>
                <mxCell id="iBiI_8RoemAOS1CKku0k-1" value="" style="rounded=0;whiteSpace=wrap;html=1;shadow=0;dashed=0;labelBackgroundColor=#9C9C9C;fontFamily=Helvetica;fontSize=21;fontColor=default;strokeColor=#999999;strokeWidth=1;fillColor=default;" parent="loOYE2-ifUIUfoz4fjdQ-1" vertex="1">
                    <mxGeometry x="100" y="480" width="210" height="10" as="geometry"/>
                </mxCell>
                <mxCell id="iBiI_8RoemAOS1CKku0k-2" value="" style="rounded=0;whiteSpace=wrap;html=1;shadow=0;dashed=0;labelBackgroundColor=#9C9C9C;fontFamily=Helvetica;fontSize=21;fontColor=default;strokeColor=#999999;strokeWidth=1;fillColor=default;" parent="loOYE2-ifUIUfoz4fjdQ-1" vertex="1">
                    <mxGeometry x="100" y="540" width="230" height="10" as="geometry"/>
                </mxCell>
                <mxCell id="iBiI_8RoemAOS1CKku0k-3" value="" style="rounded=0;whiteSpace=wrap;html=1;shadow=0;dashed=0;labelBackgroundColor=#9C9C9C;fontFamily=Helvetica;fontSize=21;fontColor=default;strokeColor=#999999;strokeWidth=1;fillColor=default;" parent="loOYE2-ifUIUfoz4fjdQ-1" vertex="1">
                    <mxGeometry x="100" y="510" width="190" height="10" as="geometry"/>
                </mxCell>
                <mxCell id="iBiI_8RoemAOS1CKku0k-4" value="" style="rounded=0;whiteSpace=wrap;html=1;shadow=0;dashed=0;labelBackgroundColor=#9C9C9C;fontFamily=Helvetica;fontSize=21;fontColor=default;strokeColor=#999999;strokeWidth=1;fillColor=default;" parent="loOYE2-ifUIUfoz4fjdQ-1" vertex="1">
                    <mxGeometry x="100" y="600" width="190" height="10" as="geometry"/>
                </mxCell>
                <mxCell id="iBiI_8RoemAOS1CKku0k-5" value="" style="rounded=0;whiteSpace=wrap;html=1;shadow=0;dashed=0;labelBackgroundColor=#9C9C9C;fontFamily=Helvetica;fontSize=21;fontColor=default;strokeColor=#999999;strokeWidth=1;fillColor=default;" parent="loOYE2-ifUIUfoz4fjdQ-1" vertex="1">
                    <mxGeometry x="100" y="570" width="180" height="10" as="geometry"/>
                </mxCell>
                <mxCell id="iBiI_8RoemAOS1CKku0k-6" value="" style="rounded=0;whiteSpace=wrap;html=1;shadow=0;dashed=0;labelBackgroundColor=#9C9C9C;fontFamily=Helvetica;fontSize=21;strokeColor=#56517e;strokeWidth=1;fillColor=#d0cee2;" parent="loOYE2-ifUIUfoz4fjdQ-1" vertex="1">
                    <mxGeometry x="440" y="290" width="290" height="150" as="geometry"/>
                </mxCell>
                <mxCell id="iBiI_8RoemAOS1CKku0k-7" value="" style="rounded=0;whiteSpace=wrap;html=1;shadow=0;dashed=0;labelBackgroundColor=#9C9C9C;fontFamily=Helvetica;fontSize=21;fontColor=default;strokeColor=#999999;strokeWidth=1;fillColor=default;" parent="loOYE2-ifUIUfoz4fjdQ-1" vertex="1">
                    <mxGeometry x="460" y="300" width="210" height="10" as="geometry"/>
                </mxCell>
                <mxCell id="iBiI_8RoemAOS1CKku0k-8" value="" style="rounded=0;whiteSpace=wrap;html=1;shadow=0;dashed=0;labelBackgroundColor=#9C9C9C;fontFamily=Helvetica;fontSize=21;fontColor=default;strokeColor=#999999;strokeWidth=1;fillColor=default;" parent="loOYE2-ifUIUfoz4fjdQ-1" vertex="1">
                    <mxGeometry x="460" y="360" width="230" height="10" as="geometry"/>
                </mxCell>
                <mxCell id="iBiI_8RoemAOS1CKku0k-9" value="" style="rounded=0;whiteSpace=wrap;html=1;shadow=0;dashed=0;labelBackgroundColor=#9C9C9C;fontFamily=Helvetica;fontSize=21;fontColor=default;strokeColor=#999999;strokeWidth=1;fillColor=default;" parent="loOYE2-ifUIUfoz4fjdQ-1" vertex="1">
                    <mxGeometry x="460" y="330" width="240" height="10" as="geometry"/>
                </mxCell>
                <mxCell id="iBiI_8RoemAOS1CKku0k-10" value="" style="rounded=0;whiteSpace=wrap;html=1;shadow=0;dashed=0;labelBackgroundColor=#9C9C9C;fontFamily=Helvetica;fontSize=21;fontColor=default;strokeColor=#999999;strokeWidth=1;fillColor=default;" parent="loOYE2-ifUIUfoz4fjdQ-1" vertex="1">
                    <mxGeometry x="460" y="420" width="190" height="10" as="geometry"/>
                </mxCell>
                <mxCell id="iBiI_8RoemAOS1CKku0k-11" value="" style="rounded=0;whiteSpace=wrap;html=1;shadow=0;dashed=0;labelBackgroundColor=#9C9C9C;fontFamily=Helvetica;fontSize=21;fontColor=default;strokeColor=#999999;strokeWidth=1;fillColor=default;" parent="loOYE2-ifUIUfoz4fjdQ-1" vertex="1">
                    <mxGeometry x="460" y="390" width="210" height="10" as="geometry"/>
                </mxCell>
                <mxCell id="iBiI_8RoemAOS1CKku0k-12" value="" style="rounded=0;whiteSpace=wrap;html=1;shadow=0;dashed=0;labelBackgroundColor=#9C9C9C;fontFamily=Helvetica;fontSize=21;strokeColor=#56517e;strokeWidth=1;fillColor=#d0cee2;" parent="loOYE2-ifUIUfoz4fjdQ-1" vertex="1">
                    <mxGeometry x="440" y="470" width="290" height="150" as="geometry"/>
                </mxCell>
                <mxCell id="iBiI_8RoemAOS1CKku0k-13" value="" style="rounded=0;whiteSpace=wrap;html=1;shadow=0;dashed=0;labelBackgroundColor=#9C9C9C;fontFamily=Helvetica;fontSize=21;fontColor=default;strokeColor=#999999;strokeWidth=1;fillColor=default;" parent="loOYE2-ifUIUfoz4fjdQ-1" vertex="1">
                    <mxGeometry x="460" y="480" width="240" height="10" as="geometry"/>
                </mxCell>
                <mxCell id="iBiI_8RoemAOS1CKku0k-14" value="" style="rounded=0;whiteSpace=wrap;html=1;shadow=0;dashed=0;labelBackgroundColor=#9C9C9C;fontFamily=Helvetica;fontSize=21;fontColor=default;strokeColor=#999999;strokeWidth=1;fillColor=default;" parent="loOYE2-ifUIUfoz4fjdQ-1" vertex="1">
                    <mxGeometry x="460" y="540" width="230" height="10" as="geometry"/>
                </mxCell>
                <mxCell id="iBiI_8RoemAOS1CKku0k-15" value="" style="rounded=0;whiteSpace=wrap;html=1;shadow=0;dashed=0;labelBackgroundColor=#9C9C9C;fontFamily=Helvetica;fontSize=21;fontColor=default;strokeColor=#999999;strokeWidth=1;fillColor=default;" parent="loOYE2-ifUIUfoz4fjdQ-1" vertex="1">
                    <mxGeometry x="460" y="510" width="190" height="10" as="geometry"/>
                </mxCell>
                <mxCell id="iBiI_8RoemAOS1CKku0k-16" value="" style="rounded=0;whiteSpace=wrap;html=1;shadow=0;dashed=0;labelBackgroundColor=#9C9C9C;fontFamily=Helvetica;fontSize=21;fontColor=default;strokeColor=#999999;strokeWidth=1;fillColor=default;" parent="loOYE2-ifUIUfoz4fjdQ-1" vertex="1">
                    <mxGeometry x="460" y="600" width="190" height="10" as="geometry"/>
                </mxCell>
                <mxCell id="iBiI_8RoemAOS1CKku0k-17" value="" style="rounded=0;whiteSpace=wrap;html=1;shadow=0;dashed=0;labelBackgroundColor=#9C9C9C;fontFamily=Helvetica;fontSize=21;fontColor=default;strokeColor=#999999;strokeWidth=1;fillColor=default;" parent="loOYE2-ifUIUfoz4fjdQ-1" vertex="1">
                    <mxGeometry x="460" y="570" width="210" height="10" as="geometry"/>
                </mxCell>
                <mxCell id="iBiI_8RoemAOS1CKku0k-18" value="" style="rounded=0;whiteSpace=wrap;html=1;shadow=0;dashed=0;labelBackgroundColor=#9C9C9C;fontFamily=Helvetica;fontSize=21;strokeColor=#56517e;strokeWidth=1;fillColor=#d0cee2;" parent="loOYE2-ifUIUfoz4fjdQ-1" vertex="1">
                    <mxGeometry x="800" y="290" width="290" height="150" as="geometry"/>
                </mxCell>
                <mxCell id="iBiI_8RoemAOS1CKku0k-19" value="" style="rounded=0;whiteSpace=wrap;html=1;shadow=0;dashed=0;labelBackgroundColor=#9C9C9C;fontFamily=Helvetica;fontSize=21;fontColor=default;strokeColor=#999999;strokeWidth=1;fillColor=default;" parent="loOYE2-ifUIUfoz4fjdQ-1" vertex="1">
                    <mxGeometry x="820" y="300" width="230" height="10" as="geometry"/>
                </mxCell>
                <mxCell id="iBiI_8RoemAOS1CKku0k-20" value="" style="rounded=0;whiteSpace=wrap;html=1;shadow=0;dashed=0;labelBackgroundColor=#9C9C9C;fontFamily=Helvetica;fontSize=21;fontColor=default;strokeColor=#999999;strokeWidth=1;fillColor=default;" parent="loOYE2-ifUIUfoz4fjdQ-1" vertex="1">
                    <mxGeometry x="820" y="360" width="230" height="10" as="geometry"/>
                </mxCell>
                <mxCell id="iBiI_8RoemAOS1CKku0k-21" value="" style="rounded=0;whiteSpace=wrap;html=1;shadow=0;dashed=0;labelBackgroundColor=#9C9C9C;fontFamily=Helvetica;fontSize=21;fontColor=default;strokeColor=#999999;strokeWidth=1;fillColor=default;" parent="loOYE2-ifUIUfoz4fjdQ-1" vertex="1">
                    <mxGeometry x="820" y="330" width="210" height="10" as="geometry"/>
                </mxCell>
                <mxCell id="iBiI_8RoemAOS1CKku0k-22" value="" style="rounded=0;whiteSpace=wrap;html=1;shadow=0;dashed=0;labelBackgroundColor=#9C9C9C;fontFamily=Helvetica;fontSize=21;fontColor=default;strokeColor=#999999;strokeWidth=1;fillColor=default;" parent="loOYE2-ifUIUfoz4fjdQ-1" vertex="1">
                    <mxGeometry x="820" y="420" width="190" height="10" as="geometry"/>
                </mxCell>
                <mxCell id="iBiI_8RoemAOS1CKku0k-23" value="" style="rounded=0;whiteSpace=wrap;html=1;shadow=0;dashed=0;labelBackgroundColor=#9C9C9C;fontFamily=Helvetica;fontSize=21;fontColor=default;strokeColor=#999999;strokeWidth=1;fillColor=default;" parent="loOYE2-ifUIUfoz4fjdQ-1" vertex="1">
                    <mxGeometry x="820" y="390" width="170" height="10" as="geometry"/>
                </mxCell>
                <mxCell id="iBiI_8RoemAOS1CKku0k-24" value="" style="rounded=0;whiteSpace=wrap;html=1;shadow=0;dashed=0;labelBackgroundColor=#9C9C9C;fontFamily=Helvetica;fontSize=21;strokeColor=#56517e;strokeWidth=1;fillColor=#d0cee2;" parent="loOYE2-ifUIUfoz4fjdQ-1" vertex="1">
                    <mxGeometry x="800" y="470" width="290" height="150" as="geometry"/>
                </mxCell>
                <mxCell id="iBiI_8RoemAOS1CKku0k-25" value="" style="rounded=0;whiteSpace=wrap;html=1;shadow=0;dashed=0;labelBackgroundColor=#9C9C9C;fontFamily=Helvetica;fontSize=21;fontColor=default;strokeColor=#999999;strokeWidth=1;fillColor=default;" parent="loOYE2-ifUIUfoz4fjdQ-1" vertex="1">
                    <mxGeometry x="820" y="480" width="210" height="10" as="geometry"/>
                </mxCell>
                <mxCell id="iBiI_8RoemAOS1CKku0k-26" value="" style="rounded=0;whiteSpace=wrap;html=1;shadow=0;dashed=0;labelBackgroundColor=#9C9C9C;fontFamily=Helvetica;fontSize=21;fontColor=default;strokeColor=#999999;strokeWidth=1;fillColor=default;" parent="loOYE2-ifUIUfoz4fjdQ-1" vertex="1">
                    <mxGeometry x="820" y="540" width="180" height="10" as="geometry"/>
                </mxCell>
                <mxCell id="iBiI_8RoemAOS1CKku0k-27" value="" style="rounded=0;whiteSpace=wrap;html=1;shadow=0;dashed=0;labelBackgroundColor=#9C9C9C;fontFamily=Helvetica;fontSize=21;fontColor=default;strokeColor=#999999;strokeWidth=1;fillColor=default;" parent="loOYE2-ifUIUfoz4fjdQ-1" vertex="1">
                    <mxGeometry x="820" y="510" width="190" height="10" as="geometry"/>
                </mxCell>
                <mxCell id="iBiI_8RoemAOS1CKku0k-28" value="" style="rounded=0;whiteSpace=wrap;html=1;shadow=0;dashed=0;labelBackgroundColor=#9C9C9C;fontFamily=Helvetica;fontSize=21;fontColor=default;strokeColor=#999999;strokeWidth=1;fillColor=default;" parent="loOYE2-ifUIUfoz4fjdQ-1" vertex="1">
                    <mxGeometry x="820" y="600" width="190" height="10" as="geometry"/>
                </mxCell>
                <mxCell id="iBiI_8RoemAOS1CKku0k-29" value="" style="rounded=0;whiteSpace=wrap;html=1;shadow=0;dashed=0;labelBackgroundColor=#9C9C9C;fontFamily=Helvetica;fontSize=21;fontColor=default;strokeColor=#999999;strokeWidth=1;fillColor=default;" parent="loOYE2-ifUIUfoz4fjdQ-1" vertex="1">
                    <mxGeometry x="820" y="570" width="210" height="10" as="geometry"/>
                </mxCell>
                <mxCell id="9HOVhI9fH_fUsOXF8vIF-0" value="&lt;font color=&quot;#000000&quot;&gt;Bảng Lương&lt;/font&gt;" style="rounded=1;whiteSpace=wrap;html=1;shadow=0;dashed=0;labelBackgroundColor=default;fontFamily=Helvetica;fontSize=17;fontColor=#FFFFFF;strokeColor=#999999;strokeWidth=1;fillColor=default;" vertex="1" parent="loOYE2-ifUIUfoz4fjdQ-1">
                    <mxGeometry x="480" y="85" width="120" height="40" as="geometry"/>
                </mxCell>
            </root>
        </mxGraphModel>
    </diagram>
    <diagram id="xwEzSFTTyJTfVjQMbgQ6" name="Page-4">
        <mxGraphModel dx="650" dy="478" grid="1" gridSize="10" guides="1" tooltips="1" connect="1" arrows="1" fold="1" page="1" pageScale="1" pageWidth="1169" pageHeight="827" math="0" shadow="0">
            <root>
                <mxCell id="75_53v45nI9R55RbihW5-0"/>
                <mxCell id="75_53v45nI9R55RbihW5-1" parent="75_53v45nI9R55RbihW5-0"/>
                <mxCell id="D9PLLMOKy1z6cplpzYzv-0" value="&lt;font size=&quot;1&quot; color=&quot;#000000&quot;&gt;&lt;b style=&quot;font-size: 26px ; background-color: rgb(148 , 201 , 255)&quot;&gt;Logo&lt;/b&gt;&lt;/font&gt;" style="rounded=1;whiteSpace=wrap;html=1;fillColor=#f5f5f5;strokeColor=#666666;gradientColor=#b3b3b3;labelBorderColor=none;fontStyle=2" parent="75_53v45nI9R55RbihW5-1" vertex="1">
                    <mxGeometry x="80" y="70" width="120" height="70" as="geometry"/>
                </mxCell>
                <mxCell id="D9PLLMOKy1z6cplpzYzv-1" value="&lt;span style=&quot;background-color: rgb(156 , 156 , 156)&quot;&gt;Nhân Viên / Tên Nhân Viên&lt;/span&gt;" style="rounded=1;whiteSpace=wrap;html=1;shadow=0;dashed=0;fontFamily=Helvetica;fontSize=20;strokeWidth=1;fillColor=#dae8fc;gradientColor=#7ea6e0;strokeColor=#6c8ebf;" parent="75_53v45nI9R55RbihW5-1" vertex="1">
                    <mxGeometry x="80" y="200" width="410" height="60" as="geometry"/>
                </mxCell>
                <mxCell id="D9PLLMOKy1z6cplpzYzv-2" value="" style="rounded=0;whiteSpace=wrap;html=1;shadow=0;dashed=0;labelBackgroundColor=#9C9C9C;fontFamily=Helvetica;fontSize=21;strokeColor=#56517e;strokeWidth=1;fillColor=#d0cee2;" parent="75_53v45nI9R55RbihW5-1" vertex="1">
                    <mxGeometry x="80" y="650" width="1010" height="150" as="geometry"/>
                </mxCell>
                <mxCell id="D9PLLMOKy1z6cplpzYzv-3" value="" style="verticalLabelPosition=bottom;shadow=0;dashed=0;align=center;html=1;verticalAlign=top;strokeWidth=1;shape=mxgraph.mockup.misc.mail2;strokeColor=#999999;labelBackgroundColor=#9C9C9C;fontFamily=Helvetica;fontSize=21;fontColor=default;fillColor=default;" parent="75_53v45nI9R55RbihW5-1" vertex="1">
                    <mxGeometry x="920" y="710" width="70" height="35" as="geometry"/>
                </mxCell>
                <mxCell id="D9PLLMOKy1z6cplpzYzv-4" value="" style="verticalLabelPosition=bottom;shadow=0;dashed=0;align=center;html=1;verticalAlign=top;strokeWidth=1;shape=mxgraph.mockup.misc.mail2;strokeColor=#999999;labelBackgroundColor=#9C9C9C;fontFamily=Helvetica;fontSize=21;fontColor=default;fillColor=default;" parent="75_53v45nI9R55RbihW5-1" vertex="1">
                    <mxGeometry x="665" y="710" width="70" height="35" as="geometry"/>
                </mxCell>
                <mxCell id="D9PLLMOKy1z6cplpzYzv-5" value="" style="verticalLabelPosition=bottom;shadow=0;dashed=0;align=center;html=1;verticalAlign=top;strokeWidth=1;shape=mxgraph.mockup.misc.mail2;strokeColor=#999999;labelBackgroundColor=#9C9C9C;fontFamily=Helvetica;fontSize=21;fontColor=default;fillColor=default;" parent="75_53v45nI9R55RbihW5-1" vertex="1">
                    <mxGeometry x="750" y="710" width="70" height="35" as="geometry"/>
                </mxCell>
                <mxCell id="D9PLLMOKy1z6cplpzYzv-6" value="" style="verticalLabelPosition=bottom;shadow=0;dashed=0;align=center;html=1;verticalAlign=top;strokeWidth=1;shape=mxgraph.mockup.misc.mail2;strokeColor=#999999;labelBackgroundColor=#9C9C9C;fontFamily=Helvetica;fontSize=21;fontColor=default;fillColor=default;" parent="75_53v45nI9R55RbihW5-1" vertex="1">
                    <mxGeometry x="835" y="710" width="70" height="35" as="geometry"/>
                </mxCell>
                <mxCell id="D9PLLMOKy1z6cplpzYzv-7" value="" style="rounded=0;whiteSpace=wrap;html=1;shadow=0;dashed=0;labelBackgroundColor=#9C9C9C;fontFamily=Helvetica;fontSize=21;fontColor=default;strokeColor=#999999;strokeWidth=1;fillColor=default;" parent="75_53v45nI9R55RbihW5-1" vertex="1">
                    <mxGeometry x="190" y="670" width="150" height="10" as="geometry"/>
                </mxCell>
                <mxCell id="D9PLLMOKy1z6cplpzYzv-8" value="" style="rounded=0;whiteSpace=wrap;html=1;shadow=0;dashed=0;labelBackgroundColor=#9C9C9C;fontFamily=Helvetica;fontSize=21;fontColor=default;strokeColor=#999999;strokeWidth=1;fillColor=default;" parent="75_53v45nI9R55RbihW5-1" vertex="1">
                    <mxGeometry x="190" y="710" width="180" height="10" as="geometry"/>
                </mxCell>
                <mxCell id="D9PLLMOKy1z6cplpzYzv-9" value="" style="rounded=0;whiteSpace=wrap;html=1;shadow=0;dashed=0;labelBackgroundColor=#9C9C9C;fontFamily=Helvetica;fontSize=21;fontColor=default;strokeColor=#999999;strokeWidth=1;fillColor=default;" parent="75_53v45nI9R55RbihW5-1" vertex="1">
                    <mxGeometry x="190" y="690" width="160" height="10" as="geometry"/>
                </mxCell>
                <mxCell id="D9PLLMOKy1z6cplpzYzv-10" value="" style="rounded=0;whiteSpace=wrap;html=1;shadow=0;dashed=0;labelBackgroundColor=#9C9C9C;fontFamily=Helvetica;fontSize=21;fontColor=default;strokeColor=#999999;strokeWidth=1;fillColor=default;" parent="75_53v45nI9R55RbihW5-1" vertex="1">
                    <mxGeometry x="190" y="732.5" width="160" height="10" as="geometry"/>
                </mxCell>
                <mxCell id="D9PLLMOKy1z6cplpzYzv-11" value="" style="rounded=0;whiteSpace=wrap;html=1;shadow=0;dashed=0;labelBackgroundColor=#9C9C9C;fontFamily=Helvetica;fontSize=21;fontColor=default;strokeColor=#999999;strokeWidth=1;fillColor=default;" parent="75_53v45nI9R55RbihW5-1" vertex="1">
                    <mxGeometry x="190" y="755" width="170" height="10" as="geometry"/>
                </mxCell>
                <mxCell id="D9PLLMOKy1z6cplpzYzv-12" value="" style="rounded=0;whiteSpace=wrap;html=1;shadow=0;dashed=0;labelBackgroundColor=#9C9C9C;fontFamily=Helvetica;fontSize=21;fontColor=default;strokeColor=#999999;strokeWidth=1;fillColor=default;" parent="75_53v45nI9R55RbihW5-1" vertex="1">
                    <mxGeometry x="190" y="780" width="150" height="10" as="geometry"/>
                </mxCell>
                <mxCell id="D9PLLMOKy1z6cplpzYzv-13" value="&lt;font color=&quot;#000000&quot;&gt;Phòng Ban&lt;/font&gt;" style="rounded=1;whiteSpace=wrap;html=1;shadow=0;dashed=0;labelBackgroundColor=default;fontFamily=Helvetica;fontSize=17;fontColor=#FFFFFF;strokeColor=#999999;strokeWidth=1;fillColor=default;" parent="75_53v45nI9R55RbihW5-1" vertex="1">
                    <mxGeometry x="350" y="85" width="120" height="40" as="geometry"/>
                </mxCell>
                <mxCell id="D9PLLMOKy1z6cplpzYzv-15" value="&lt;font color=&quot;#000000&quot;&gt;Nhân Viên&lt;/font&gt;" style="rounded=1;whiteSpace=wrap;html=1;shadow=0;dashed=0;labelBackgroundColor=default;fontFamily=Helvetica;fontSize=17;fontColor=#FFFFFF;strokeColor=#999999;strokeWidth=1;fillColor=default;" parent="75_53v45nI9R55RbihW5-1" vertex="1">
                    <mxGeometry x="225" y="85" width="120" height="40" as="geometry"/>
                </mxCell>
                <mxCell id="WZl5ewJXJ-B-alIpbCRQ-0" value="Ảnh" style="swimlane;shadow=0;dashed=0;labelBackgroundColor=#525252;labelBorderColor=none;fontFamily=Helvetica;fontSize=17;strokeWidth=6;html=1;fillColor=#a0522d;strokeColor=#6D1F00;swimlaneFillColor=default;rounded=0;swimlaneLine=0;glass=0;fontColor=#ffffff;" parent="75_53v45nI9R55RbihW5-1" vertex="1">
                    <mxGeometry x="110" y="320" width="210" height="210" as="geometry"/>
                </mxCell>
                <mxCell id="WZl5ewJXJ-B-alIpbCRQ-2" value="" style="rounded=0;whiteSpace=wrap;html=1;shadow=0;dashed=0;labelBackgroundColor=#FFFFFF;fontFamily=Helvetica;fontSize=21;fontColor=#000000;strokeColor=#999999;strokeWidth=1;fillColor=default;labelBorderColor=#000000;" parent="75_53v45nI9R55RbihW5-1" vertex="1">
                    <mxGeometry x="360" y="330" width="220" height="10" as="geometry"/>
                </mxCell>
                <mxCell id="WZl5ewJXJ-B-alIpbCRQ-3" value="" style="rounded=0;whiteSpace=wrap;html=1;shadow=0;dashed=0;labelBackgroundColor=#FFFFFF;fontFamily=Helvetica;fontSize=21;fontColor=#000000;strokeColor=#999999;strokeWidth=1;fillColor=default;labelBorderColor=#000000;" parent="75_53v45nI9R55RbihW5-1" vertex="1">
                    <mxGeometry x="360" y="360" width="130" height="10" as="geometry"/>
                </mxCell>
                <mxCell id="WZl5ewJXJ-B-alIpbCRQ-4" value="" style="rounded=0;whiteSpace=wrap;html=1;shadow=0;dashed=0;labelBackgroundColor=#FFFFFF;fontFamily=Helvetica;fontSize=21;fontColor=#000000;strokeColor=#999999;strokeWidth=1;fillColor=default;labelBorderColor=#000000;" parent="75_53v45nI9R55RbihW5-1" vertex="1">
                    <mxGeometry x="360" y="404" width="160" height="10" as="geometry"/>
                </mxCell>
                <mxCell id="WZl5ewJXJ-B-alIpbCRQ-5" value="" style="rounded=0;whiteSpace=wrap;html=1;shadow=0;dashed=0;labelBackgroundColor=#FFFFFF;fontFamily=Helvetica;fontSize=21;fontColor=#000000;strokeColor=#999999;strokeWidth=1;fillColor=default;labelBorderColor=#000000;" parent="75_53v45nI9R55RbihW5-1" vertex="1">
                    <mxGeometry x="360" y="440" width="110" height="10" as="geometry"/>
                </mxCell>
                <mxCell id="WZl5ewJXJ-B-alIpbCRQ-6" value="" style="rounded=0;whiteSpace=wrap;html=1;shadow=0;dashed=0;labelBackgroundColor=#FFFFFF;fontFamily=Helvetica;fontSize=21;fontColor=#000000;strokeColor=#999999;strokeWidth=1;fillColor=default;labelBorderColor=#000000;" parent="75_53v45nI9R55RbihW5-1" vertex="1">
                    <mxGeometry x="360" y="470" width="150" height="10" as="geometry"/>
                </mxCell>
                <mxCell id="WZl5ewJXJ-B-alIpbCRQ-7" value="" style="rounded=0;whiteSpace=wrap;html=1;shadow=0;dashed=0;labelBackgroundColor=#FFFFFF;fontFamily=Helvetica;fontSize=21;fontColor=#000000;strokeColor=#999999;strokeWidth=1;fillColor=default;labelBorderColor=#000000;" parent="75_53v45nI9R55RbihW5-1" vertex="1">
                    <mxGeometry x="360" y="510" width="150" height="10" as="geometry"/>
                </mxCell>
                <mxCell id="rpO1_rsuc-AQzTUDBQhp-0" value="&lt;font color=&quot;#000000&quot;&gt;Bảng Lương&lt;/font&gt;" style="rounded=1;whiteSpace=wrap;html=1;shadow=0;dashed=0;labelBackgroundColor=default;fontFamily=Helvetica;fontSize=17;fontColor=#FFFFFF;strokeColor=#999999;strokeWidth=1;fillColor=default;" vertex="1" parent="75_53v45nI9R55RbihW5-1">
                    <mxGeometry x="480" y="85" width="120" height="40" as="geometry"/>
                </mxCell>
            </root>
        </mxGraphModel>
    </diagram>
</mxfile>